# xmcd
#
# Track frame offsets: 
#        150
#        26911
#        53772
#        74855
#        105887
#        120400
#        146480
#        167164
#        186733
#        220247
#        237369
#
# Disc length: 3359 seconds
#
# Revision: 0
# Processed by: cddbd v1.5.2PL0 Copyright (c) Steve Scherf et al.
# Submitted via: ExactAudioCopyFreeDBPlugin 1.0
#
DISCID=a60d1d0b
DTITLE=Muddy What? - Gone From Mississippi
DYEAR=2018
DGENRE=Blues
TTITLE0=Mannish Boy
TTITLE1=Love In Vain
TTITLE2=Moving On
TTITLE3=Gone From Mississippi
TTITLE4=Fire
TTITLE5=Blue Trailer Blues
TTITLE6=One More Time
TTITLE7=Your Life Is Broken
TTITLE8=Sad Smile
TTITLE9=If 6 Was 9
TTITLE10=Nine Pound Hammer
EXTD=
EXTT0=
EXTT1=
EXTT2=
EXTT3=
EXTT4=
EXTT5=
EXTT6=
EXTT7=
EXTT8=
EXTT9=
EXTT10=
PLAYORDER=
